<mxfile host="app.diagrams.net" modified="2023-12-23T04:59:30.313Z" agent="Mozilla/5.0 (Macintosh; Intel Mac OS X 10_15_7) AppleWebKit/605.1.15 (KHTML, like Gecko) Version/17.0 Safari/605.1.15" version="22.1.11" etag="Ncc61HAUJ_h2w6fKF4aQ" type="github">
  <diagram name="페이지-1" id="LkykT4YyccKAcgRcMyz-">
    <mxGraphModel>
      <root>
        <mxCell id="0" />
        <mxCell id="1" parent="0" />
      </root>
    </mxGraphModel>
  </diagram>
</mxfile>
